<svg xmlns="http://www.w3.org/2000/svg" xmlns:xlink="http://www.w3.org/1999/xlink" contentStyleType="text/css" height="1160px" preserveAspectRatio="none" style="width:4103px;height:1160px;background:#FFFFFF;" version="1.1" viewBox="0 0 4103 1160" width="4103px" zoomAndPan="magnify"><defs/><g><rect fill="#F1F1F1" height="52.5938" rx="12.5" ry="12.5" style="stroke:#181818;stroke-width:1.5;" width="24.4502" x="2038.6396" y="10"/><text fill="#000000" font-family="sans-serif" font-size="14" lengthAdjust="spacing" textLength="4.4502" x="2048.6396" y="32.9951">&#160;</text><text fill="#000000" font-family="sans-serif" font-size="14" lengthAdjust="spacing" textLength="4.4502" x="2048.6396" y="49.292">&#160;</text><rect fill="#F1F1F1" height="52.5938" rx="12.5" ry="12.5" style="stroke:#181818;stroke-width:1.5;" width="259.1621" x="1766.708" y="87.5938"/><text fill="#000000" font-family="sans-serif" font-size="14" lengthAdjust="spacing" textLength="239.1621" x="1776.708" y="110.5889">Sir John Stewart of Bonkyll d.1298</text><text fill="#000000" font-family="sans-serif" font-size="14" font-weight="bold" lengthAdjust="spacing" textLength="51.0371" x="1776.708" y="126.8857">+S781</text><rect fill="#F1F1F1" height="52.5938" rx="12.5" ry="12.5" style="stroke:#181818;stroke-width:1.5;" width="299.7949" x="30.4111" y="165.1875"/><text fill="#000000" font-family="sans-serif" font-size="14" lengthAdjust="spacing" textLength="279.7949" x="40.4111" y="188.1826">Sir Alexander Stewart of Bonkyll d.1319</text><text fill="#000000" font-family="sans-serif" font-size="14" font-style="italic" lengthAdjust="spacing" textLength="43.5039" x="40.4111" y="204.4795">Angus</text><rect fill="#F1F1F1" height="52.5938" rx="12.5" ry="12.5" style="stroke:#181818;stroke-width:1.5;" width="264.4395" x="48.0889" y="242.7813"/><text fill="#000000" font-family="sans-serif" font-size="14" lengthAdjust="spacing" textLength="244.4395" x="58.0889" y="265.7764">John Stewart, Earl of Angus d.1331</text><text fill="#000000" font-family="sans-serif" font-size="14" lengthAdjust="spacing" textLength="4.4502" x="58.0889" y="282.0732">&#160;</text><rect fill="#FFC0CB" height="52.5938" rx="12.5" ry="12.5" style="stroke:#181818;stroke-width:1.5;" width="320.6172" x="20" y="320.375"/><text fill="#000000" font-family="sans-serif" font-size="14" lengthAdjust="spacing" textLength="300.6172" x="30" y="343.3701">Thomas Stewart, 2nd Earl of Angus d.1361</text><text fill="#000000" font-family="sans-serif" font-size="14" lengthAdjust="spacing" textLength="4.4502" x="30" y="359.667">&#160;</text><path d="M180.3086,295.375 L180.3086,298.375 C180.3086,305.375 180.3086,310.375 180.3086,317.375 L180.3086,320.375 " fill="none" style="stroke:#181818;stroke-width:1.0;"/><path d="M180.3086,217.7813 L180.3086,220.7813 C180.3086,227.7813 180.3086,232.7813 180.3086,239.7813 L180.3086,242.7813 " fill="none" style="stroke:#181818;stroke-width:1.0;"/><path d="M1896.2891,140.1875 L1896.2891,143.1875 C1896.2891,150.1875 180.3086,155.1875 180.3086,162.1875 L180.3086,165.1875 " fill="none" style="stroke:#181818;stroke-width:1.0;"/><rect fill="#F1F1F1" height="52.5938" rx="12.5" ry="12.5" style="stroke:#181818;stroke-width:1.5;" width="274.5293" x="1161.7268" y="165.1875"/><text fill="#000000" font-family="sans-serif" font-size="14" lengthAdjust="spacing" textLength="254.5293" x="1171.7268" y="188.1826">Sir Alan Stewart of Dreghorn d.1333</text><text fill="#000000" font-family="sans-serif" font-size="14" font-style="italic" lengthAdjust="spacing" textLength="110.5029" x="1171.7268" y="204.4795">Darnley/Lennox</text><rect fill="#F1F1F1" height="52.5938" rx="12.5" ry="12.5" style="stroke:#181818;stroke-width:1.5;" width="368.373" x="1114.8049" y="242.7813"/><text fill="#000000" font-family="sans-serif" font-size="14" lengthAdjust="spacing" textLength="348.373" x="1124.8049" y="265.7764">Sir Alexander Stewart of Darnley and Cruckistoun</text><text fill="#000000" font-family="sans-serif" font-size="14" lengthAdjust="spacing" textLength="60.6963" x="1124.8049" y="282.0732">d.~1374</text><rect fill="#F1F1F1" height="52.5938" rx="12.5" ry="12.5" style="stroke:#181818;stroke-width:1.5;" width="249.9404" x="1174.0212" y="320.375"/><text fill="#000000" font-family="sans-serif" font-size="14" lengthAdjust="spacing" textLength="229.9404" x="1184.0212" y="343.3701">Sir Alexander Stewart of Darnley</text><text fill="#000000" font-family="sans-serif" font-size="14" lengthAdjust="spacing" textLength="48.9658" x="1184.0212" y="359.667">d.1404</text><rect fill="#F1F1F1" height="52.5938" rx="12.5" ry="12.5" style="stroke:#181818;stroke-width:1.5;" width="415.1309" x="550.0576" y="397.9688"/><text fill="#000000" font-family="sans-serif" font-size="14" lengthAdjust="spacing" textLength="395.1309" x="560.0576" y="420.9639">Sir John Stewart of Darnley and Lennox, Lord of Aubigny</text><text fill="#000000" font-family="sans-serif" font-size="14" lengthAdjust="spacing" textLength="48.9658" x="560.0576" y="437.2607">d.1429</text><rect fill="#F1F1F1" height="52.5938" rx="12.5" ry="12.5" style="stroke:#181818;stroke-width:1.5;" width="132.6152" x="542.3623" y="475.5625"/><text fill="#000000" font-family="sans-serif" font-size="14" lengthAdjust="spacing" textLength="112.6152" x="552.3623" y="498.5576">Sir Alan Stewart</text><text fill="#000000" font-family="sans-serif" font-size="14" lengthAdjust="spacing" textLength="48.9658" x="552.3623" y="514.8545">d.1439</text><rect fill="#F1F1F1" height="52.5938" rx="12.5" ry="12.5" style="stroke:#181818;stroke-width:1.5;" width="241.5117" x="360.6172" y="553.1563"/><text fill="#000000" font-family="sans-serif" font-size="14" lengthAdjust="spacing" textLength="221.5117" x="370.6172" y="576.1514">Sir John Stewart, Earl of Lennox</text><text fill="#000000" font-family="sans-serif" font-size="14" lengthAdjust="spacing" textLength="48.9658" x="370.6172" y="592.4482">d.1495</text><path d="M608.6699,528.1563 L608.6699,531.1563 C608.6699,538.1563 481.373,543.1563 481.373,550.1563 L481.373,553.1563 " fill="none" style="stroke:#181818;stroke-width:1.0;"/><rect fill="#F1F1F1" height="52.5938" rx="12.5" ry="12.5" style="stroke:#181818;stroke-width:1.5;" width="234.5938" x="622.1289" y="553.1563"/><text fill="#000000" font-family="sans-serif" font-size="14" lengthAdjust="spacing" textLength="214.5938" x="632.1289" y="576.1514">Alexander Stewart of Galstoun</text><text fill="#000000" font-family="sans-serif" font-size="14" lengthAdjust="spacing" textLength="48.9658" x="632.1289" y="592.4482">d.1473</text><path d="M608.6699,528.1563 L608.6699,531.1563 C608.6699,538.1563 739.4258,543.1563 739.4258,550.1563 L739.4258,553.1563 " fill="none" style="stroke:#181818;stroke-width:1.0;"/><path d="M757.623,450.5625 L757.623,453.5625 C757.623,460.5625 608.6699,465.5625 608.6699,472.5625 L608.6699,475.5625 " fill="none" style="stroke:#181818;stroke-width:1.0;"/><rect fill="#F1F1F1" height="52.5938" rx="12.5" ry="12.5" style="stroke:#181818;stroke-width:1.5;" width="149.7871" x="694.9775" y="475.5625"/><text fill="#000000" font-family="sans-serif" font-size="14" lengthAdjust="spacing" textLength="129.7871" x="704.9775" y="498.5576">Alexander Stewart</text><text fill="#000000" font-family="sans-serif" font-size="14" lengthAdjust="spacing" textLength="4.4502" x="704.9775" y="514.8545">&#160;</text><path d="M757.623,450.5625 L757.623,453.5625 C757.623,460.5625 769.8711,465.5625 769.8711,472.5625 L769.8711,475.5625 " fill="none" style="stroke:#181818;stroke-width:1.0;"/><rect fill="#F1F1F1" height="52.5938" rx="12.5" ry="12.5" style="stroke:#181818;stroke-width:1.5;" width="255.3955" x="887.978" y="475.5625"/><text fill="#000000" font-family="sans-serif" font-size="14" lengthAdjust="spacing" textLength="235.3955" x="897.978" y="498.5576">John Stewart 2nd Lord of Aubigny</text><text fill="#000000" font-family="sans-serif" font-size="14" lengthAdjust="spacing" textLength="48.9658" x="897.978" y="514.8545">d.1482</text><rect fill="#F1F1F1" height="52.5938" rx="12.5" ry="12.5" style="stroke:#181818;stroke-width:1.5;" width="277.9063" x="876.7227" y="553.1563"/><text fill="#000000" font-family="sans-serif" font-size="14" lengthAdjust="spacing" textLength="257.9063" x="886.7227" y="576.1514">Bernard Stewart 3rd Lord of Aubigny</text><text fill="#000000" font-family="sans-serif" font-size="14" lengthAdjust="spacing" textLength="4.4502" x="886.7227" y="592.4482">&#160;</text><path d="M1015.6758,528.1563 L1015.6758,531.1563 C1015.6758,538.1563 1015.6758,543.1563 1015.6758,550.1563 L1015.6758,553.1563 " fill="none" style="stroke:#181818;stroke-width:1.0;"/><path d="M757.623,450.5625 L757.623,453.5625 C757.623,460.5625 1015.6758,465.5625 1015.6758,472.5625 L1015.6758,475.5625 " fill="none" style="stroke:#181818;stroke-width:1.0;"/><path d="M1298.9915,372.9688 L1298.9915,375.9688 C1298.9915,382.9688 757.623,387.9688 757.623,394.9688 L757.623,397.9688 " fill="none" style="stroke:#181818;stroke-width:1.0;"/><rect fill="#FFC0CB" height="52.5938" rx="12.5" ry="12.5" style="stroke:#181818;stroke-width:1.5;" width="130.332" x="985.1885" y="397.9688"/><text fill="#000000" font-family="sans-serif" font-size="14" lengthAdjust="spacing" textLength="110.332" x="995.1885" y="420.9639">William Stewart</text><text fill="#000000" font-family="sans-serif" font-size="14" lengthAdjust="spacing" textLength="48.9658" x="995.1885" y="437.2607">d.1429</text><path d="M1298.9915,372.9688 L1298.9915,375.9688 C1298.9915,382.9688 1050.3545,387.9688 1050.3545,394.9688 L1050.3545,397.9688 " fill="none" style="stroke:#181818;stroke-width:1.0;"/><rect fill="#F1F1F1" height="52.5938" rx="12.5" ry="12.5" style="stroke:#181818;stroke-width:1.5;" width="332.5732" x="1470.2397" y="397.9688"/><text fill="#000000" font-family="sans-serif" font-size="14" lengthAdjust="spacing" textLength="311.2881" x="1480.2397" y="420.9639">Alexander Stewart of Torbane and Galleston</text><text fill="#000000" font-family="sans-serif" font-size="14" font-style="italic" lengthAdjust="spacing" textLength="312.5732" x="1480.2397" y="437.2607">Stewarts of Drumlay, Halrig, Raiss, Shawood</text><rect fill="#F1F1F1" height="52.5938" rx="12.5" ry="12.5" style="stroke:#181818;stroke-width:1.5;" width="208.9658" x="1532.0435" y="475.5625"/><text fill="#000000" font-family="sans-serif" font-size="14" lengthAdjust="spacing" textLength="188.9658" x="1542.0435" y="498.5576">Alexander Stewart of Raiss</text><text fill="#000000" font-family="sans-serif" font-size="14" lengthAdjust="spacing" textLength="4.4502" x="1542.0435" y="514.8545">&#160;</text><rect fill="#F1F1F1" height="52.5938" rx="12.5" ry="12.5" style="stroke:#181818;stroke-width:1.5;" width="184.541" x="1327.5024" y="553.1563"/><text fill="#000000" font-family="sans-serif" font-size="14" lengthAdjust="spacing" textLength="164.541" x="1337.5024" y="576.1514">Hector Stewart of Raiss</text><text fill="#000000" font-family="sans-serif" font-size="14" lengthAdjust="spacing" textLength="4.4502" x="1337.5024" y="592.4482">&#160;</text><path d="M1636.5264,528.1563 L1636.5264,531.1563 C1636.5264,538.1563 1419.7729,543.1563 1419.7729,550.1563 L1419.7729,553.1563 " fill="none" style="stroke:#181818;stroke-width:1.0;"/><rect fill="#F1F1F1" height="52.5938" rx="12.5" ry="12.5" style="stroke:#181818;stroke-width:1.5;" width="208.9658" x="1532.0435" y="553.1563"/><text fill="#000000" font-family="sans-serif" font-size="14" lengthAdjust="spacing" textLength="188.9658" x="1542.0435" y="576.1514">Alexander Stewart of Raiss</text><text fill="#000000" font-family="sans-serif" font-size="14" lengthAdjust="spacing" textLength="52.2266" x="1542.0435" y="592.4482">c. 1484</text><rect fill="#F1F1F1" height="52.5938" rx="12.5" ry="12.5" style="stroke:#181818;stroke-width:1.5;" width="168.333" x="1351.0659" y="630.75"/><text fill="#000000" font-family="sans-serif" font-size="14" lengthAdjust="spacing" textLength="148.333" x="1361.0659" y="653.7451">John Stewart of Raiss</text><text fill="#000000" font-family="sans-serif" font-size="14" lengthAdjust="spacing" textLength="52.2266" x="1361.0659" y="670.042">c. 1530</text><path d="M1636.5264,605.75 L1636.5264,608.75 C1636.5264,615.75 1435.2324,620.75 1435.2324,627.75 L1435.2324,630.75 " fill="none" style="stroke:#181818;stroke-width:1.0;"/><rect fill="#F1F1F1" height="52.5938" rx="12.5" ry="12.5" style="stroke:#181818;stroke-width:1.5;" width="194.2549" x="1539.3989" y="630.75"/><text fill="#000000" font-family="sans-serif" font-size="14" lengthAdjust="spacing" textLength="174.2549" x="1549.3989" y="653.7451">William Stewart of Halrig</text><text fill="#000000" font-family="sans-serif" font-size="14" lengthAdjust="spacing" textLength="52.2266" x="1549.3989" y="670.042">c. 1556</text><rect fill="#F1F1F1" height="52.5938" rx="12.5" ry="12.5" style="stroke:#181818;stroke-width:1.5;" width="173.0771" x="1549.9878" y="708.3438"/><text fill="#000000" font-family="sans-serif" font-size="14" lengthAdjust="spacing" textLength="153.0771" x="1559.9878" y="731.3389">John Stewart of Halrig</text><text fill="#000000" font-family="sans-serif" font-size="14" lengthAdjust="spacing" textLength="47.7764" x="1559.9878" y="747.6357">c.1570</text><rect fill="#F1F1F1" height="52.5938" rx="12.5" ry="12.5" style="stroke:#181818;stroke-width:1.5;" width="173.0771" x="1549.9878" y="785.9375"/><text fill="#000000" font-family="sans-serif" font-size="14" lengthAdjust="spacing" textLength="153.0771" x="1559.9878" y="808.9326">John Stewart of Halrig</text><text fill="#000000" font-family="sans-serif" font-size="14" lengthAdjust="spacing" textLength="47.7764" x="1559.9878" y="825.2295">c.1587</text><rect fill="#F1F1F1" height="52.5938" rx="12.5" ry="12.5" style="stroke:#181818;stroke-width:1.5;" width="194.2549" x="1539.3989" y="863.5313"/><text fill="#000000" font-family="sans-serif" font-size="14" lengthAdjust="spacing" textLength="174.2549" x="1549.3989" y="886.5264">William Stewart of Halrig</text><text fill="#000000" font-family="sans-serif" font-size="14" lengthAdjust="spacing" textLength="4.4502" x="1549.3989" y="902.8232">&#160;</text><rect fill="#FFC0CB" height="52.5938" rx="12.5" ry="12.5" style="stroke:#181818;stroke-width:1.5;" width="194.2549" x="1324.5938" y="941.125"/><text fill="#000000" font-family="sans-serif" font-size="14" lengthAdjust="spacing" textLength="174.2549" x="1334.5938" y="964.1201">William Stewart of Halrig</text><text fill="#000000" font-family="sans-serif" font-size="14" lengthAdjust="spacing" textLength="4.4502" x="1334.5938" y="980.417">&#160;</text><path d="M1636.5264,916.125 L1636.5264,919.125 C1636.5264,926.125 1421.7212,931.125 1421.7212,938.125 L1421.7212,941.125 " fill="none" style="stroke:#181818;stroke-width:1.0;"/><rect fill="#F1F1F1" height="52.5938" rx="12.5" ry="12.5" style="stroke:#181818;stroke-width:1.5;" width="195.3555" x="1538.8486" y="941.125"/><text fill="#000000" font-family="sans-serif" font-size="14" lengthAdjust="spacing" textLength="175.3555" x="1548.8486" y="964.1201">John Stewart of Shawood</text><text fill="#000000" font-family="sans-serif" font-size="14" lengthAdjust="spacing" textLength="4.4502" x="1548.8486" y="980.417">&#160;</text><rect fill="#FFC0CB" height="52.5938" rx="12.5" ry="12.5" style="stroke:#181818;stroke-width:1.5;" width="216.5332" x="1174.6289" y="1018.7188"/><text fill="#000000" font-family="sans-serif" font-size="14" lengthAdjust="spacing" textLength="196.5332" x="1184.6289" y="1041.7139">William Stewart of Shawood</text><text fill="#000000" font-family="sans-serif" font-size="14" lengthAdjust="spacing" textLength="4.4502" x="1184.6289" y="1058.0107">&#160;</text><path d="M1636.5264,993.7188 L1636.5264,996.7188 C1636.5264,1003.7188 1282.8955,1008.7188 1282.8955,1015.7188 L1282.8955,1018.7188 " fill="none" style="stroke:#181818;stroke-width:1.0;"/><rect fill="#FFC0CB" height="52.5938" rx="12.5" ry="12.5" style="stroke:#181818;stroke-width:1.5;" width="211.9531" x="1411.1621" y="1018.7188"/><text fill="#000000" font-family="sans-serif" font-size="14" lengthAdjust="spacing" textLength="191.9531" x="1421.1621" y="1041.7139">Robert Stewart of Shawood</text><text fill="#000000" font-family="sans-serif" font-size="14" lengthAdjust="spacing" textLength="4.4502" x="1421.1621" y="1058.0107">&#160;</text><path d="M1636.5264,993.7188 L1636.5264,996.7188 C1636.5264,1003.7188 1517.1387,1008.7188 1517.1387,1015.7188 L1517.1387,1018.7188 " fill="none" style="stroke:#181818;stroke-width:1.0;"/><rect fill="#F1F1F1" height="52.5938" rx="12.5" ry="12.5" style="stroke:#181818;stroke-width:1.5;" width="210.5518" x="1643.1152" y="1018.7188"/><text fill="#000000" font-family="sans-serif" font-size="14" lengthAdjust="spacing" textLength="190.5518" x="1653.1152" y="1041.7139">John Stewart of East-Binnie</text><text fill="#000000" font-family="sans-serif" font-size="14" lengthAdjust="spacing" textLength="4.4502" x="1653.1152" y="1058.0107">&#160;</text><rect fill="#F1F1F1" height="52.5938" rx="12.5" ry="12.5" style="stroke:#181818;stroke-width:1.5;" width="227.1494" x="1398.3584" y="1096.3125"/><text fill="#000000" font-family="sans-serif" font-size="14" lengthAdjust="spacing" textLength="207.1494" x="1408.3584" y="1119.3076">Robert Stewart of East-Binnie</text><text fill="#000000" font-family="sans-serif" font-size="14" lengthAdjust="spacing" textLength="48.9658" x="1408.3584" y="1135.6045">b.1719</text><path d="M1748.3911,1071.3125 L1748.3911,1074.3125 C1748.3911,1081.3125 1511.9331,1086.3125 1511.9331,1093.3125 L1511.9331,1096.3125 " fill="none" style="stroke:#181818;stroke-width:1.0;"/><rect fill="#F1F1F1" height="52.5938" rx="12.5" ry="12.5" style="stroke:#181818;stroke-width:1.5;" width="210.5518" x="1645.5078" y="1096.3125"/><text fill="#000000" font-family="sans-serif" font-size="14" lengthAdjust="spacing" textLength="190.5518" x="1655.5078" y="1119.3076">John Stewart of East-Binnie</text><text fill="#000000" font-family="sans-serif" font-size="14" lengthAdjust="spacing" textLength="4.4502" x="1655.5078" y="1135.6045">&#160;</text><path d="M1748.3911,1071.3125 L1748.3911,1074.3125 C1748.3911,1081.3125 1750.7837,1086.3125 1750.7837,1093.3125 L1750.7837,1096.3125 " fill="none" style="stroke:#181818;stroke-width:1.0;"/><rect fill="#F1F1F1" height="52.5938" rx="12.5" ry="12.5" style="stroke:#181818;stroke-width:1.5;" width="222.3643" x="1876.0596" y="1096.3125"/><text fill="#000000" font-family="sans-serif" font-size="14" lengthAdjust="spacing" textLength="202.3643" x="1886.0596" y="1119.3076">James Stewart of East-Binnie</text><text fill="#000000" font-family="sans-serif" font-size="14" lengthAdjust="spacing" textLength="4.4502" x="1886.0596" y="1135.6045">&#160;</text><path d="M1748.3911,1071.3125 L1748.3911,1074.3125 C1748.3911,1081.3125 1987.2417,1086.3125 1987.2417,1093.3125 L1987.2417,1096.3125 " fill="none" style="stroke:#181818;stroke-width:1.0;"/><path d="M1636.5264,993.7188 L1636.5264,996.7188 C1636.5264,1003.7188 1748.3911,1008.7188 1748.3911,1015.7188 L1748.3911,1018.7188 " fill="none" style="stroke:#181818;stroke-width:1.0;"/><path d="M1636.5264,916.125 L1636.5264,919.125 C1636.5264,926.125 1636.5264,931.125 1636.5264,938.125 L1636.5264,941.125 " fill="none" style="stroke:#181818;stroke-width:1.0;"/><rect fill="#F1F1F1" height="52.5938" rx="12.5" ry="12.5" style="stroke:#181818;stroke-width:1.5;" width="207.168" x="1754.2041" y="941.125"/><text fill="#000000" font-family="sans-serif" font-size="14" lengthAdjust="spacing" textLength="187.168" x="1764.2041" y="964.1201">James Stewart of Shawood</text><text fill="#000000" font-family="sans-serif" font-size="14" lengthAdjust="spacing" textLength="4.4502" x="1764.2041" y="980.417">&#160;</text><path d="M1636.5264,916.125 L1636.5264,919.125 C1636.5264,926.125 1857.7881,931.125 1857.7881,938.125 L1857.7881,941.125 " fill="none" style="stroke:#181818;stroke-width:1.0;"/><path d="M1636.5264,838.5313 L1636.5264,841.5313 C1636.5264,848.5313 1636.5264,853.5313 1636.5264,860.5313 L1636.5264,863.5313 " fill="none" style="stroke:#181818;stroke-width:1.0;"/><path d="M1636.5264,760.9375 L1636.5264,763.9375 C1636.5264,770.9375 1636.5264,775.9375 1636.5264,782.9375 L1636.5264,785.9375 " fill="none" style="stroke:#181818;stroke-width:1.0;"/><path d="M1636.5264,683.3438 L1636.5264,686.3438 C1636.5264,693.3438 1636.5264,698.3438 1636.5264,705.3438 L1636.5264,708.3438 " fill="none" style="stroke:#181818;stroke-width:1.0;"/><path d="M1636.5264,605.75 L1636.5264,608.75 C1636.5264,615.75 1636.5264,620.75 1636.5264,627.75 L1636.5264,630.75 " fill="none" style="stroke:#181818;stroke-width:1.0;"/><path d="M1636.5264,528.1563 L1636.5264,531.1563 C1636.5264,538.1563 1636.5264,543.1563 1636.5264,550.1563 L1636.5264,553.1563 " fill="none" style="stroke:#181818;stroke-width:1.0;"/><path d="M1636.5264,450.5625 L1636.5264,453.5625 C1636.5264,460.5625 1636.5264,465.5625 1636.5264,472.5625 L1636.5264,475.5625 " fill="none" style="stroke:#181818;stroke-width:1.0;"/><path d="M1298.9915,372.9688 L1298.9915,375.9688 C1298.9915,382.9688 1636.5264,387.9688 1636.5264,394.9688 L1636.5264,397.9688 " fill="none" style="stroke:#181818;stroke-width:1.0;"/><rect fill="#F1F1F1" height="52.5938" rx="12.5" ry="12.5" style="stroke:#181818;stroke-width:1.5;" width="273.5859" x="1822.813" y="397.9688"/><text fill="#000000" font-family="sans-serif" font-size="14" lengthAdjust="spacing" textLength="105.752" x="1832.813" y="420.9639">Robert Stewart</text><text fill="#000000" font-family="sans-serif" font-size="14" font-style="italic" lengthAdjust="spacing" textLength="253.5859" x="1832.813" y="437.2607">Stewarts of Barscube, Binnie, Milton</text><path d="M1298.9915,372.9688 L1298.9915,375.9688 C1298.9915,382.9688 1959.606,387.9688 1959.606,394.9688 L1959.606,397.9688 " fill="none" style="stroke:#181818;stroke-width:1.0;"/><rect fill="#F1F1F1" height="52.5938" rx="12.5" ry="12.5" style="stroke:#181818;stroke-width:1.5;" width="120.9668" x="2116.3989" y="397.9688"/><text fill="#000000" font-family="sans-serif" font-size="14" lengthAdjust="spacing" textLength="100.9668" x="2126.3989" y="420.9639">James Stewart</text><text fill="#000000" font-family="sans-serif" font-size="14" lengthAdjust="spacing" textLength="4.4502" x="2126.3989" y="437.2607">&#160;</text><path d="M1298.9915,372.9688 L1298.9915,375.9688 C1298.9915,382.9688 2176.8823,387.9688 2176.8823,394.9688 L2176.8823,397.9688 " fill="none" style="stroke:#181818;stroke-width:1.0;"/><path d="M1298.9915,295.375 L1298.9915,298.375 C1298.9915,305.375 1298.9915,310.375 1298.9915,317.375 L1298.9915,320.375 " fill="none" style="stroke:#181818;stroke-width:1.0;"/><path d="M1298.9915,217.7813 L1298.9915,220.7813 C1298.9915,227.7813 1298.9915,232.7813 1298.9915,239.7813 L1298.9915,242.7813 " fill="none" style="stroke:#181818;stroke-width:1.0;"/><path d="M1896.2891,140.1875 L1896.2891,143.1875 C1896.2891,150.1875 1298.9915,155.1875 1298.9915,162.1875 L1298.9915,165.1875 " fill="none" style="stroke:#181818;stroke-width:1.0;"/><rect fill="#F1F1F1" height="52.5938" rx="12.5" ry="12.5" style="stroke:#181818;stroke-width:1.5;" width="247.9443" x="1456.2561" y="165.1875"/><text fill="#000000" font-family="sans-serif" font-size="14" lengthAdjust="spacing" textLength="227.9443" x="1466.2561" y="188.1826">Sir Walter Stewart of Dalwinston</text><text fill="#000000" font-family="sans-serif" font-size="14" font-style="italic" lengthAdjust="spacing" textLength="64.0869" x="1466.2561" y="204.4795">Galloway</text><path d="M1896.2891,140.1875 L1896.2891,143.1875 C1896.2891,150.1875 1580.2283,155.1875 1580.2283,162.1875 L1580.2283,165.1875 " fill="none" style="stroke:#181818;stroke-width:1.0;"/><rect fill="#F1F1F1" height="52.5938" rx="12.5" ry="12.5" style="stroke:#181818;stroke-width:1.5;" width="201.8154" x="2914.0642" y="165.1875"/><text fill="#000000" font-family="sans-serif" font-size="14" lengthAdjust="spacing" textLength="181.8154" x="2924.0642" y="188.1826">Sir James Stewart d. 1333</text><text fill="#000000" font-family="sans-serif" font-size="14" font-style="italic" lengthAdjust="spacing" textLength="107.5088" x="2924.0642" y="204.4795">Buchan/Traquir</text><rect fill="#FFC0CB" height="52.5938" rx="12.5" ry="12.5" style="stroke:#181818;stroke-width:1.5;" width="132.1367" x="2540.1531" y="242.7813"/><text fill="#000000" font-family="sans-serif" font-size="14" lengthAdjust="spacing" textLength="112.1367" x="2550.1531" y="265.7764">Sir John Stewart</text><text fill="#000000" font-family="sans-serif" font-size="14" lengthAdjust="spacing" textLength="4.4502" x="2550.1531" y="282.0732">&#160;</text><path d="M3014.9719,217.7813 L3014.9719,220.7813 C3014.9719,227.7813 2606.2214,232.7813 2606.2214,239.7813 L2606.2214,242.7813 " fill="none" style="stroke:#181818;stroke-width:1.0;"/><rect fill="#FFC0CB" height="52.5938" rx="12.5" ry="12.5" style="stroke:#181818;stroke-width:1.5;" width="132.6152" x="2692.2898" y="242.7813"/><text fill="#000000" font-family="sans-serif" font-size="14" lengthAdjust="spacing" textLength="112.6152" x="2702.2898" y="265.7764">Sir Alan Stewart</text><text fill="#000000" font-family="sans-serif" font-size="14" lengthAdjust="spacing" textLength="4.4502" x="2702.2898" y="282.0732">&#160;</text><path d="M3014.9719,217.7813 L3014.9719,220.7813 C3014.9719,227.7813 2758.5974,232.7813 2758.5974,239.7813 L2758.5974,242.7813 " fill="none" style="stroke:#181818;stroke-width:1.0;"/><rect fill="#F1F1F1" height="52.5938" rx="12.5" ry="12.5" style="stroke:#181818;stroke-width:1.5;" width="340.1338" x="2844.905" y="242.7813"/><text fill="#000000" font-family="sans-serif" font-size="14" lengthAdjust="spacing" textLength="320.1338" x="2854.905" y="265.7764">Robert Stewart of Shanbothy and Innermeath</text><text fill="#000000" font-family="sans-serif" font-size="14" lengthAdjust="spacing" textLength="4.4502" x="2854.905" y="282.0732">&#160;</text><rect fill="#F1F1F1" height="52.5938" rx="12.5" ry="12.5" style="stroke:#181818;stroke-width:1.5;" width="212.9854" x="2908.4792" y="320.375"/><text fill="#000000" font-family="sans-serif" font-size="14" lengthAdjust="spacing" textLength="192.9854" x="2918.4792" y="343.3701">John Stewart of Innermeath</text><text fill="#000000" font-family="sans-serif" font-size="14" lengthAdjust="spacing" textLength="4.4502" x="2918.4792" y="359.667">&#160;</text><rect fill="#F1F1F1" height="52.5938" rx="12.5" ry="12.5" style="stroke:#181818;stroke-width:1.5;" width="278.2139" x="2365.8125" y="397.9688"/><text fill="#000000" font-family="sans-serif" font-size="14" lengthAdjust="spacing" textLength="258.2139" x="2375.8125" y="420.9639">Robert Stewart 2nd Lord Innermeath</text><text fill="#000000" font-family="sans-serif" font-size="14" lengthAdjust="spacing" textLength="53.416" x="2375.8125" y="437.2607">d. 1388</text><rect fill="#F1F1F1" height="52.5938" rx="12.5" ry="12.5" style="stroke:#181818;stroke-width:1.5;" width="258.499" x="2257.3657" y="475.5625"/><text fill="#000000" font-family="sans-serif" font-size="14" lengthAdjust="spacing" textLength="238.499" x="2267.3657" y="498.5576">John Stewart 3rd Lord Innermeath</text><text fill="#000000" font-family="sans-serif" font-size="14" lengthAdjust="spacing" textLength="4.4502" x="2267.3657" y="514.8545">&#160;</text><path d="M2504.9194,450.5625 L2504.9194,453.5625 C2504.9194,460.5625 2386.6152,465.5625 2386.6152,472.5625 L2386.6152,475.5625 " fill="none" style="stroke:#181818;stroke-width:1.0;"/><rect fill="#F1F1F1" height="52.5938" rx="12.5" ry="12.5" style="stroke:#181818;stroke-width:1.5;" width="216.6084" x="2535.8647" y="475.5625"/><text fill="#000000" font-family="sans-serif" font-size="14" lengthAdjust="spacing" textLength="196.6084" x="2545.8647" y="498.5576">Robert Stewart of Durisdeer</text><text fill="#000000" font-family="sans-serif" font-size="14" lengthAdjust="spacing" textLength="48.9658" x="2545.8647" y="514.8545">d.1403</text><path d="M2504.9194,450.5625 L2504.9194,453.5625 C2504.9194,460.5625 2644.1689,465.5625 2644.1689,472.5625 L2644.1689,475.5625 " fill="none" style="stroke:#181818;stroke-width:1.0;"/><path d="M3014.9719,372.9688 L3014.9719,375.9688 C3014.9719,382.9688 2504.9194,387.9688 2504.9194,394.9688 L2504.9194,397.9688 " fill="none" style="stroke:#181818;stroke-width:1.0;"/><rect fill="#F1F1F1" height="52.5938" rx="12.5" ry="12.5" style="stroke:#181818;stroke-width:1.5;" width="144.749" x="2664.0264" y="397.9688"/><text fill="#000000" font-family="sans-serif" font-size="14" lengthAdjust="spacing" textLength="124.749" x="2674.0264" y="420.9639">Archibald Stewart</text><text fill="#000000" font-family="sans-serif" font-size="14" lengthAdjust="spacing" textLength="4.4502" x="2674.0264" y="437.2607">&#160;</text><path d="M3014.9719,372.9688 L3014.9719,375.9688 C3014.9719,382.9688 2736.4009,387.9688 2736.4009,394.9688 L2736.4009,397.9688 " fill="none" style="stroke:#181818;stroke-width:1.0;"/><rect fill="#F1F1F1" height="52.5938" rx="12.5" ry="12.5" style="stroke:#181818;stroke-width:1.5;" width="289.3086" x="3010.2646" y="397.9688"/><text fill="#000000" font-family="sans-serif" font-size="14" lengthAdjust="spacing" textLength="269.3086" x="3020.2646" y="420.9639">Sir James Stewart Black Knight of Lorn</text><text fill="#000000" font-family="sans-serif" font-size="14" lengthAdjust="spacing" textLength="4.4502" x="3020.2646" y="437.2607">&#160;</text><rect fill="#F1F1F1" height="52.5938" rx="12.5" ry="12.5" style="stroke:#181818;stroke-width:1.5;" width="279.752" x="2987.2485" y="475.5625"/><text fill="#000000" font-family="sans-serif" font-size="14" lengthAdjust="spacing" textLength="259.752" x="2997.2485" y="498.5576">Sir John Stewart d.1512 Earl of Atholl</text><text fill="#000000" font-family="sans-serif" font-size="14" lengthAdjust="spacing" textLength="4.4502" x="2997.2485" y="514.8545">&#160;</text><rect fill="#F1F1F1" height="52.5938" rx="12.5" ry="12.5" style="stroke:#181818;stroke-width:1.5;" width="310.8691" x="2971.6899" y="553.1563"/><text fill="#000000" font-family="sans-serif" font-size="14" lengthAdjust="spacing" textLength="290.8691" x="2981.6899" y="576.1514">Sir John Stewart d.1513 2nd Earl of Atholl</text><text fill="#000000" font-family="sans-serif" font-size="14" lengthAdjust="spacing" textLength="4.4502" x="2981.6899" y="592.4482">&#160;</text><rect fill="#F1F1F1" height="52.5938" rx="12.5" ry="12.5" style="stroke:#181818;stroke-width:1.5;" width="307.752" x="2856.5327" y="630.75"/><text fill="#000000" font-family="sans-serif" font-size="14" lengthAdjust="spacing" textLength="287.752" x="2866.5327" y="653.7451">Sir John Stewart d.1542 3rd Earl of Atholl</text><text fill="#000000" font-family="sans-serif" font-size="14" lengthAdjust="spacing" textLength="4.4502" x="2866.5327" y="670.042">&#160;</text><rect fill="#F1F1F1" height="52.5938" rx="12.5" ry="12.5" style="stroke:#181818;stroke-width:1.5;" width="311.9219" x="2772.4731" y="708.3438"/><text fill="#000000" font-family="sans-serif" font-size="14" lengthAdjust="spacing" textLength="291.9219" x="2782.4731" y="731.3389">Sir John Stewart d. 1579 4th Earl of Atholl</text><text fill="#000000" font-family="sans-serif" font-size="14" lengthAdjust="spacing" textLength="4.4502" x="2782.4731" y="747.6357">&#160;</text><path d="M3010.4087,683.3438 L3010.4087,686.3438 C3010.4087,693.3438 2928.4341,698.3438 2928.4341,705.3438 L2928.4341,708.3438 " fill="none" style="stroke:#181818;stroke-width:1.0;"/><rect fill="#F1F1F1" height="52.5938" rx="12.5" ry="12.5" style="stroke:#181818;stroke-width:1.5;" width="143.9492" x="3104.395" y="708.3438"/><text fill="#000000" font-family="sans-serif" font-size="14" lengthAdjust="spacing" textLength="123.9492" x="3114.395" y="731.3389">Sir James Stewart</text><text fill="#000000" font-family="sans-serif" font-size="14" lengthAdjust="spacing" textLength="4.4502" x="3114.395" y="747.6357">&#160;</text><path d="M3010.4087,683.3438 L3010.4087,686.3438 C3010.4087,693.3438 3176.3696,698.3438 3176.3696,705.3438 L3176.3696,708.3438 " fill="none" style="stroke:#181818;stroke-width:1.0;"/><path d="M3127.1245,605.75 L3127.1245,608.75 C3127.1245,615.75 3010.4087,620.75 3010.4087,627.75 L3010.4087,630.75 " fill="none" style="stroke:#181818;stroke-width:1.0;"/><rect fill="#F1F1F1" height="52.5938" rx="12.5" ry="12.5" style="stroke:#181818;stroke-width:1.5;" width="297.4912" x="3184.2847" y="630.75"/><text fill="#000000" font-family="sans-serif" font-size="14" lengthAdjust="spacing" textLength="277.4912" x="3194.2847" y="653.7451">Sir Andrew Stewart Bishop of Caithness</text><text fill="#000000" font-family="sans-serif" font-size="14" lengthAdjust="spacing" textLength="4.4502" x="3194.2847" y="670.042">&#160;</text><path d="M3127.1245,605.75 L3127.1245,608.75 C3127.1245,615.75 3333.0303,620.75 3333.0303,627.75 L3333.0303,630.75 " fill="none" style="stroke:#181818;stroke-width:1.0;"/><path d="M3127.1245,528.1563 L3127.1245,531.1563 C3127.1245,538.1563 3127.1245,543.1563 3127.1245,550.1563 L3127.1245,553.1563 " fill="none" style="stroke:#181818;stroke-width:1.0;"/><path d="M3154.9189,450.5625 L3154.9189,453.5625 C3154.9189,460.5625 3127.1245,465.5625 3127.1245,472.5625 L3127.1245,475.5625 " fill="none" style="stroke:#181818;stroke-width:1.0;"/><rect fill="#F1F1F1" height="52.5938" rx="12.5" ry="12.5" style="stroke:#181818;stroke-width:1.5;" width="250.3643" x="3287.0005" y="475.5625"/><text fill="#000000" font-family="sans-serif" font-size="14" lengthAdjust="spacing" textLength="230.3643" x="3297.0005" y="498.5576">Sir James Stewart Earl of Buchan</text><text fill="#000000" font-family="sans-serif" font-size="14" lengthAdjust="spacing" textLength="4.4502" x="3297.0005" y="514.8545">&#160;</text><path d="M3154.9189,450.5625 L3154.9189,453.5625 C3154.9189,460.5625 3412.1826,465.5625 3412.1826,472.5625 L3412.1826,475.5625 " fill="none" style="stroke:#181818;stroke-width:1.0;"/><path d="M3014.9719,372.9688 L3014.9719,375.9688 C3014.9719,382.9688 3154.9189,387.9688 3154.9189,394.9688 L3154.9189,397.9688 " fill="none" style="stroke:#181818;stroke-width:1.0;"/><rect fill="#F1F1F1" height="52.5938" rx="12.5" ry="12.5" style="stroke:#181818;stroke-width:1.5;" width="302.6729" x="3319.5732" y="397.9688"/><text fill="#000000" font-family="sans-serif" font-size="14" lengthAdjust="spacing" textLength="129.7871" x="3329.5732" y="420.9639">Alexander Stewart</text><text fill="#000000" font-family="sans-serif" font-size="14" font-style="italic" lengthAdjust="spacing" textLength="148.4355" x="3463.8105" y="420.9639">Stewarts of Grantully</text><text fill="#000000" font-family="sans-serif" font-size="14" lengthAdjust="spacing" textLength="4.4502" x="3329.5732" y="437.2607">&#160;</text><path d="M3014.9719,372.9688 L3014.9719,375.9688 C3014.9719,382.9688 3470.9097,387.9688 3470.9097,394.9688 L3470.9097,397.9688 " fill="none" style="stroke:#181818;stroke-width:1.0;"/><rect fill="#F1F1F1" height="52.5938" rx="12.5" ry="12.5" style="stroke:#181818;stroke-width:1.5;" width="130.332" x="3642.2461" y="397.9688"/><text fill="#000000" font-family="sans-serif" font-size="14" lengthAdjust="spacing" textLength="110.332" x="3652.2461" y="420.9639">William Stewart</text><text fill="#000000" font-family="sans-serif" font-size="14" lengthAdjust="spacing" textLength="4.4502" x="3652.2461" y="437.2607">&#160;</text><path d="M3014.9719,372.9688 L3014.9719,375.9688 C3014.9719,382.9688 3707.4121,387.9688 3707.4121,394.9688 L3707.4121,397.9688 " fill="none" style="stroke:#181818;stroke-width:1.0;"/><path d="M3014.9719,295.375 L3014.9719,298.375 C3014.9719,305.375 3014.9719,310.375 3014.9719,317.375 L3014.9719,320.375 " fill="none" style="stroke:#181818;stroke-width:1.0;"/><rect fill="#F1F1F1" height="52.5938" rx="12.5" ry="12.5" style="stroke:#181818;stroke-width:1.5;" width="271.002" x="3141.4646" y="320.375"/><text fill="#000000" font-family="sans-serif" font-size="14" lengthAdjust="spacing" textLength="105.752" x="3151.4646" y="343.3701">Robert Stewart</text><text fill="#000000" font-family="sans-serif" font-size="14" font-style="italic" lengthAdjust="spacing" textLength="140.7998" x="3261.6667" y="343.3701">Stewarts of Rosythe</text><text fill="#000000" font-family="sans-serif" font-size="14" lengthAdjust="spacing" textLength="4.4502" x="3151.4646" y="359.667">&#160;</text><path d="M3014.9719,295.375 L3014.9719,298.375 C3014.9719,305.375 3276.9656,310.375 3276.9656,317.375 L3276.9656,320.375 " fill="none" style="stroke:#181818;stroke-width:1.0;"/><path d="M3014.9719,217.7813 L3014.9719,220.7813 C3014.9719,227.7813 3014.9719,232.7813 3014.9719,239.7813 L3014.9719,242.7813 " fill="none" style="stroke:#181818;stroke-width:1.0;"/><path d="M1896.2891,140.1875 L1896.2891,143.1875 C1896.2891,150.1875 3014.9719,155.1875 3014.9719,162.1875 L3014.9719,165.1875 " fill="none" style="stroke:#181818;stroke-width:1.0;"/><rect fill="#F1F1F1" height="52.5938" rx="12.5" ry="12.5" style="stroke:#181818;stroke-width:1.5;" width="132.1367" x="3135.8796" y="165.1875"/><text fill="#000000" font-family="sans-serif" font-size="14" lengthAdjust="spacing" textLength="112.1367" x="3145.8796" y="188.1826">Sir John Stewart</text><text fill="#000000" font-family="sans-serif" font-size="14" font-style="italic" lengthAdjust="spacing" textLength="73.165" x="3145.8796" y="204.4795">Castlemilk</text><path d="M1896.2891,140.1875 L1896.2891,143.1875 C1896.2891,150.1875 3201.948,155.1875 3201.948,162.1875 L3201.948,165.1875 " fill="none" style="stroke:#181818;stroke-width:1.0;"/><rect fill="#F1F1F1" height="52.5938" rx="12.5" ry="12.5" style="stroke:#181818;stroke-width:1.5;" width="138.8564" x="3288.0164" y="165.1875"/><text fill="#000000" font-family="sans-serif" font-size="14" lengthAdjust="spacing" textLength="118.8564" x="3298.0164" y="188.1826">Sir Hugh Stewart</text><text fill="#000000" font-family="sans-serif" font-size="14" lengthAdjust="spacing" textLength="4.4502" x="3298.0164" y="204.4795">&#160;</text><path d="M1896.2891,140.1875 L1896.2891,143.1875 C1896.2891,150.1875 3357.4446,155.1875 3357.4446,162.1875 L3357.4446,165.1875 " fill="none" style="stroke:#181818;stroke-width:1.0;"/><rect fill="#F1F1F1" height="52.5938" rx="12.5" ry="12.5" style="stroke:#181818;stroke-width:1.5;" width="148.7344" x="3446.8728" y="165.1875"/><text fill="#000000" font-family="sans-serif" font-size="14" lengthAdjust="spacing" textLength="128.7344" x="3456.8728" y="188.1826">Sir Robert Stewart</text><text fill="#000000" font-family="sans-serif" font-size="14" lengthAdjust="spacing" textLength="4.4502" x="3456.8728" y="204.4795">&#160;</text><path d="M1896.2891,140.1875 L1896.2891,143.1875 C1896.2891,150.1875 3521.24,155.1875 3521.24,162.1875 L3521.24,165.1875 " fill="none" style="stroke:#181818;stroke-width:1.0;"/><path d="M2050.8647,62.5938 L2050.8647,65.5938 C2050.8647,72.5938 1896.2891,77.5938 1896.2891,84.5938 L1896.2891,87.5938 " fill="none" style="stroke:#181818;stroke-width:1.0;"/><rect fill="#F1F1F1" height="52.5938" rx="12.5" ry="12.5" style="stroke:#181818;stroke-width:1.5;" width="55.6084" x="3909.3496" y="87.5938"/><text fill="#000000" font-family="sans-serif" font-size="14" lengthAdjust="spacing" textLength="35.6084" x="3919.3496" y="110.5889">S781</text><text fill="#000000" font-family="sans-serif" font-size="14" lengthAdjust="spacing" textLength="4.4502" x="3919.3496" y="126.8857">&#160;</text><rect fill="#F1F1F1" height="52.5938" rx="12.5" ry="12.5" style="stroke:#181818;stroke-width:1.5;" width="24.4502" x="3924.9287" y="165.1875"/><text fill="#000000" font-family="sans-serif" font-size="14" lengthAdjust="spacing" textLength="4.4502" x="3934.9287" y="188.1826">&#160;</text><text fill="#000000" font-family="sans-serif" font-size="14" lengthAdjust="spacing" textLength="4.4502" x="3934.9287" y="204.4795">&#160;</text><rect fill="#F1F1F1" height="52.5938" rx="12.5" ry="12.5" style="stroke:#181818;stroke-width:1.5;" width="24.4502" x="3924.9287" y="242.7813"/><text fill="#000000" font-family="sans-serif" font-size="14" lengthAdjust="spacing" textLength="4.4502" x="3934.9287" y="265.7764">&#160;</text><text fill="#000000" font-family="sans-serif" font-size="14" lengthAdjust="spacing" textLength="4.4502" x="3934.9287" y="282.0732">&#160;</text><rect fill="#F1F1F1" height="52.5938" rx="12.5" ry="12.5" style="stroke:#181818;stroke-width:1.5;" width="24.4502" x="3924.9287" y="320.375"/><text fill="#000000" font-family="sans-serif" font-size="14" lengthAdjust="spacing" textLength="4.4502" x="3934.9287" y="343.3701">&#160;</text><text fill="#000000" font-family="sans-serif" font-size="14" lengthAdjust="spacing" textLength="4.4502" x="3934.9287" y="359.667">&#160;</text><rect fill="#F1F1F1" height="52.5938" rx="12.5" ry="12.5" style="stroke:#181818;stroke-width:1.5;" width="289.1514" x="3792.5781" y="397.9688"/><text fill="#000000" font-family="sans-serif" font-size="14" lengthAdjust="spacing" textLength="269.1514" x="3802.5781" y="420.9639">R-BY11989.1 / SNP FGC74572? ~1450</text><text fill="#000000" font-family="sans-serif" font-size="14" lengthAdjust="spacing" textLength="4.4502" x="3802.5781" y="437.2607">&#160;</text><rect fill="#F1F1F1" height="52.5938" rx="12.5" ry="12.5" style="stroke:#181818;stroke-width:1.5;" width="24.4502" x="3924.9287" y="475.5625"/><text fill="#000000" font-family="sans-serif" font-size="14" lengthAdjust="spacing" textLength="4.4502" x="3934.9287" y="498.5576">&#160;</text><text fill="#000000" font-family="sans-serif" font-size="14" lengthAdjust="spacing" textLength="4.4502" x="3934.9287" y="514.8545">&#160;</text><rect fill="#F1F1F1" height="52.5938" rx="12.5" ry="12.5" style="stroke:#181818;stroke-width:1.5;" width="24.4502" x="3924.9287" y="553.1563"/><text fill="#000000" font-family="sans-serif" font-size="14" lengthAdjust="spacing" textLength="4.4502" x="3934.9287" y="576.1514">&#160;</text><text fill="#000000" font-family="sans-serif" font-size="14" lengthAdjust="spacing" textLength="4.4502" x="3934.9287" y="592.4482">&#160;</text><rect fill="#F1F1F1" height="52.5938" rx="12.5" ry="12.5" style="stroke:#181818;stroke-width:1.5;" width="24.4502" x="3924.9287" y="630.75"/><text fill="#000000" font-family="sans-serif" font-size="14" lengthAdjust="spacing" textLength="4.4502" x="3934.9287" y="653.7451">&#160;</text><text fill="#000000" font-family="sans-serif" font-size="14" lengthAdjust="spacing" textLength="4.4502" x="3934.9287" y="670.042">&#160;</text><rect fill="#F1F1F1" height="52.5938" rx="12.5" ry="12.5" style="stroke:#181818;stroke-width:1.5;" width="167.2324" x="3853.5376" y="708.3438"/><text fill="#000000" font-family="sans-serif" font-size="14" lengthAdjust="spacing" textLength="147.2324" x="3863.5376" y="731.3389">R-FGC70765? ~1550</text><text fill="#000000" font-family="sans-serif" font-size="14" lengthAdjust="spacing" textLength="4.4502" x="3863.5376" y="747.6357">&#160;</text><path d="M3937.1538,683.3438 L3937.1538,686.3438 C3937.1538,693.3438 3937.1538,698.3438 3937.1538,705.3438 L3937.1538,708.3438 " fill="none" style="stroke:#181818;stroke-width:1.0;"/><path d="M3937.1538,605.75 L3937.1538,608.75 C3937.1538,615.75 3937.1538,620.75 3937.1538,627.75 L3937.1538,630.75 " fill="none" style="stroke:#181818;stroke-width:1.0;"/><path d="M3937.1538,528.1563 L3937.1538,531.1563 C3937.1538,538.1563 3937.1538,543.1563 3937.1538,550.1563 L3937.1538,553.1563 " fill="none" style="stroke:#181818;stroke-width:1.0;"/><path d="M3937.1538,450.5625 L3937.1538,453.5625 C3937.1538,460.5625 3937.1538,465.5625 3937.1538,472.5625 L3937.1538,475.5625 " fill="none" style="stroke:#181818;stroke-width:1.0;"/><path d="M3937.1538,372.9688 L3937.1538,375.9688 C3937.1538,382.9688 3937.1538,387.9688 3937.1538,394.9688 L3937.1538,397.9688 " fill="none" style="stroke:#181818;stroke-width:1.0;"/><path d="M3937.1538,295.375 L3937.1538,298.375 C3937.1538,305.375 3937.1538,310.375 3937.1538,317.375 L3937.1538,320.375 " fill="none" style="stroke:#181818;stroke-width:1.0;"/><path d="M3937.1538,217.7813 L3937.1538,220.7813 C3937.1538,227.7813 3937.1538,232.7813 3937.1538,239.7813 L3937.1538,242.7813 " fill="none" style="stroke:#181818;stroke-width:1.0;"/><path d="M3937.1538,140.1875 L3937.1538,143.1875 C3937.1538,150.1875 3937.1538,155.1875 3937.1538,162.1875 L3937.1538,165.1875 " fill="none" style="stroke:#181818;stroke-width:1.0;"/><path d="M2050.8647,62.5938 L2050.8647,65.5938 C2050.8647,72.5938 3937.1538,77.5938 3937.1538,84.5938 L3937.1538,87.5938 " fill="none" style="stroke:#181818;stroke-width:1.0;"/><!--SRC=[bLPTSzeu57tNhz3ClhGi0Onj34ucRO0qAIMx6Q3jxEpqGSOgrY1BgIo7yjBVNjd6MFu0TXzjdNFkX-wzkkyZYOGC2VD3z0B7d6ttbCALm1X8_W8bXnwNaeVG9mAl9U4Cj5nm3LejTqa4dF60mQN4EoK2-VUZWDyn-gCXkF5k_rmwG-EcwzrU0qNAM7SK_qJCn-84rJH6u8RSth5D7DrqoO7QSdLhRNYF14s8AIobcGOuG5l__l52sFQRkmfuYAA2r6T-0t6G4m_keL9GKu4t0HSiis4chasHO1JlktFC6F-f-tWolWC5gWCu4V5wIoB9OmRypY_3TAphpE-BV8Kth5uERxu5tLJcOHlEkV3Je6EFR5Wcqn_bClN0Ku1P0EgMYXl8RAICaQqn6kDuG3GFtB0Si_2WXWR5MId2v0wRmXdsDTjZB1XIc9naYZefX-V5yfLGIb1uv1oJ1Cu5jEB2GmodsLR1KQp2OqcH731HLaDnID6-3HyH5MJJXWj4egWDbm7QSUvh5NJIJie01QhbFggEv1SmPwJM7QYIPcdeIg9BIDlibP3LP2bm5bk6jWSwkYvyn1gsKn8-ZnqwPUmvFoh8azTycb7pv71TDU0vxOkS1VUmWluNIisXUnJ9gp5XZE0wkjKWhHEyZk4OemRQ_xGoGo6Epk311RWMBcXqlDfDOoIYTUpXDioCjE4JeQhhIcrKjgCF-A-8okfmfJl2yiPDkfZlqBwGouPVoMzVLVdXDHZ7wm2nxagW7p4HcXFv3LT79sWuBmtV_3LfB0scdkGWc-uV6SCYn4W6ntkfNLu3fYPy7AaQE0rmEDJ6KadvE51B-gSBRneB4lbOvJrxmanjh8frG3n4_ThaRyZxcABr5dvYP1Eakie71ihlMCbFPSms-iMZBmDEAJZphcKCixmgL5adQ5O_pSjfMYDFZKjd12qPN2PMIhfyUiTyWNT5faWKg1rEoKqGaG73wTDmKkveF2lduWxgJqYb7Hy4OZAcD6sOWbUPXVb1jJOgOWiUxMM03r9Qz-dzepWJDMCe3WdTLjhqCTu4JLrV6IcPjfkifvbdxi51z-Xe4ShYQloFOOo6euu1kt3vrpFyy31nBDlfluE_3ClkQOdLQwiqBSjVYMWYqdC6TY9YfoBWFLQhUBQE0_2iPeBy_3I7hrX4QlU6HgVVwrkTmPibad0MKzWRmDx8DIpN7CBFgmbCZj-2Dm_FSnZnMAonMjmZAOWN9xlxMp13hmWkOYP9Y5tuzmjci-cd_0UyPwz4S1PY9i7iorC165XgdAlSOQ4yWL-Um1H_Hp5LDSFMt2Tiuohh7ww6O8xKKeqsIXipC55hdXHxTRRy3G00]--></g></svg>