<svg xmlns="http://www.w3.org/2000/svg" xmlns:xlink="http://www.w3.org/1999/xlink" contentStyleType="text/css" height="772px" preserveAspectRatio="none" style="width:3769px;height:772px;background:#FFFFFF;" version="1.1" viewBox="0 0 3769 772" width="3769px" zoomAndPan="magnify"><defs/><g><rect fill="#F1F1F1" height="52.5938" rx="12.5" ry="12.5" style="stroke:#181818;stroke-width:1.5;" width="24.4502" x="1871.28" y="10"/><text fill="#000000" font-family="sans-serif" font-size="14" lengthAdjust="spacing" textLength="4.4502" x="1881.28" y="32.9951">&#160;</text><text fill="#000000" font-family="sans-serif" font-size="14" lengthAdjust="spacing" textLength="4.4502" x="1881.28" y="49.292">&#160;</text><rect fill="#F1F1F1" height="52.5938" rx="12.5" ry="12.5" style="stroke:#181818;stroke-width:1.5;" width="259.1621" x="1599.3484" y="87.5938"/><text fill="#000000" font-family="sans-serif" font-size="14" lengthAdjust="spacing" textLength="239.1621" x="1609.3484" y="110.5889">Sir John Stewart of Bonkyll d.1298</text><text fill="#000000" font-family="sans-serif" font-size="14" font-weight="bold" lengthAdjust="spacing" textLength="51.0371" x="1609.3484" y="126.8857">+S781</text><rect fill="#F1F1F1" height="52.5938" rx="12.5" ry="12.5" style="stroke:#181818;stroke-width:1.5;" width="299.7949" x="30.4111" y="165.1875"/><text fill="#000000" font-family="sans-serif" font-size="14" lengthAdjust="spacing" textLength="279.7949" x="40.4111" y="188.1826">Sir Alexander Stewart of Bonkyll d.1319</text><text fill="#000000" font-family="sans-serif" font-size="14" font-style="italic" lengthAdjust="spacing" textLength="43.5039" x="40.4111" y="204.4795">Angus</text><rect fill="#F1F1F1" height="52.5938" rx="12.5" ry="12.5" style="stroke:#181818;stroke-width:1.5;" width="264.4395" x="48.0889" y="242.7813"/><text fill="#000000" font-family="sans-serif" font-size="14" lengthAdjust="spacing" textLength="244.4395" x="58.0889" y="265.7764">John Stewart, Earl of Angus d.1331</text><text fill="#000000" font-family="sans-serif" font-size="14" lengthAdjust="spacing" textLength="4.4502" x="58.0889" y="282.0732">&#160;</text><rect fill="#FFC0CB" height="52.5938" rx="12.5" ry="12.5" style="stroke:#181818;stroke-width:1.5;" width="320.6172" x="20" y="320.375"/><text fill="#000000" font-family="sans-serif" font-size="14" lengthAdjust="spacing" textLength="300.6172" x="30" y="343.3701">Thomas Stewart, 2nd Earl of Angus d.1361</text><text fill="#000000" font-family="sans-serif" font-size="14" lengthAdjust="spacing" textLength="4.4502" x="30" y="359.667">&#160;</text><path d="M180.3086,295.375 L180.3086,298.375 C180.3086,305.375 180.3086,310.375 180.3086,317.375 L180.3086,320.375 " fill="none" style="stroke:#181818;stroke-width:1.0;"/><path d="M180.3086,217.7813 L180.3086,220.7813 C180.3086,227.7813 180.3086,232.7813 180.3086,239.7813 L180.3086,242.7813 " fill="none" style="stroke:#181818;stroke-width:1.0;"/><path d="M1728.9294,140.1875 L1728.9294,143.1875 C1728.9294,150.1875 180.3086,155.1875 180.3086,162.1875 L180.3086,165.1875 " fill="none" style="stroke:#181818;stroke-width:1.0;"/><rect fill="#F1F1F1" height="52.5938" rx="12.5" ry="12.5" style="stroke:#181818;stroke-width:1.5;" width="274.5293" x="994.3672" y="165.1875"/><text fill="#000000" font-family="sans-serif" font-size="14" lengthAdjust="spacing" textLength="254.5293" x="1004.3672" y="188.1826">Sir Alan Stewart of Dreghorn d.1333</text><text fill="#000000" font-family="sans-serif" font-size="14" font-style="italic" lengthAdjust="spacing" textLength="110.5029" x="1004.3672" y="204.4795">Darnley/Lennox</text><rect fill="#F1F1F1" height="52.5938" rx="12.5" ry="12.5" style="stroke:#181818;stroke-width:1.5;" width="368.373" x="947.4453" y="242.7813"/><text fill="#000000" font-family="sans-serif" font-size="14" lengthAdjust="spacing" textLength="348.373" x="957.4453" y="265.7764">Sir Alexander Stewart of Darnley and Cruckistoun</text><text fill="#000000" font-family="sans-serif" font-size="14" lengthAdjust="spacing" textLength="60.6963" x="957.4453" y="282.0732">d.~1374</text><rect fill="#F1F1F1" height="52.5938" rx="12.5" ry="12.5" style="stroke:#181818;stroke-width:1.5;" width="249.9404" x="1006.6616" y="320.375"/><text fill="#000000" font-family="sans-serif" font-size="14" lengthAdjust="spacing" textLength="229.9404" x="1016.6616" y="343.3701">Sir Alexander Stewart of Darnley</text><text fill="#000000" font-family="sans-serif" font-size="14" lengthAdjust="spacing" textLength="48.9658" x="1016.6616" y="359.667">d.1404</text><rect fill="#F1F1F1" height="52.5938" rx="12.5" ry="12.5" style="stroke:#181818;stroke-width:1.5;" width="415.1309" x="550.0576" y="397.9688"/><text fill="#000000" font-family="sans-serif" font-size="14" lengthAdjust="spacing" textLength="395.1309" x="560.0576" y="420.9639">Sir John Stewart of Darnley and Lennox, Lord of Aubigny</text><text fill="#000000" font-family="sans-serif" font-size="14" lengthAdjust="spacing" textLength="48.9658" x="560.0576" y="437.2607">d.1429</text><rect fill="#F1F1F1" height="52.5938" rx="12.5" ry="12.5" style="stroke:#181818;stroke-width:1.5;" width="132.6152" x="542.3623" y="475.5625"/><text fill="#000000" font-family="sans-serif" font-size="14" lengthAdjust="spacing" textLength="112.6152" x="552.3623" y="498.5576">Sir Alan Stewart</text><text fill="#000000" font-family="sans-serif" font-size="14" lengthAdjust="spacing" textLength="48.9658" x="552.3623" y="514.8545">d.1439</text><rect fill="#F1F1F1" height="52.5938" rx="12.5" ry="12.5" style="stroke:#181818;stroke-width:1.5;" width="241.5117" x="360.6172" y="553.1563"/><text fill="#000000" font-family="sans-serif" font-size="14" lengthAdjust="spacing" textLength="221.5117" x="370.6172" y="576.1514">Sir John Stewart, Earl of Lennox</text><text fill="#000000" font-family="sans-serif" font-size="14" lengthAdjust="spacing" textLength="48.9658" x="370.6172" y="592.4482">d.1495</text><path d="M608.6699,528.1563 L608.6699,531.1563 C608.6699,538.1563 481.373,543.1563 481.373,550.1563 L481.373,553.1563 " fill="none" style="stroke:#181818;stroke-width:1.0;"/><rect fill="#F1F1F1" height="52.5938" rx="12.5" ry="12.5" style="stroke:#181818;stroke-width:1.5;" width="234.5938" x="622.1289" y="553.1563"/><text fill="#000000" font-family="sans-serif" font-size="14" lengthAdjust="spacing" textLength="214.5938" x="632.1289" y="576.1514">Alexander Stewart of Galstoun</text><text fill="#000000" font-family="sans-serif" font-size="14" lengthAdjust="spacing" textLength="48.9658" x="632.1289" y="592.4482">d.1473</text><path d="M608.6699,528.1563 L608.6699,531.1563 C608.6699,538.1563 739.4258,543.1563 739.4258,550.1563 L739.4258,553.1563 " fill="none" style="stroke:#181818;stroke-width:1.0;"/><path d="M757.623,450.5625 L757.623,453.5625 C757.623,460.5625 608.6699,465.5625 608.6699,472.5625 L608.6699,475.5625 " fill="none" style="stroke:#181818;stroke-width:1.0;"/><rect fill="#F1F1F1" height="52.5938" rx="12.5" ry="12.5" style="stroke:#181818;stroke-width:1.5;" width="149.7871" x="694.9775" y="475.5625"/><text fill="#000000" font-family="sans-serif" font-size="14" lengthAdjust="spacing" textLength="129.7871" x="704.9775" y="498.5576">Alexander Stewart</text><text fill="#000000" font-family="sans-serif" font-size="14" lengthAdjust="spacing" textLength="4.4502" x="704.9775" y="514.8545">&#160;</text><path d="M757.623,450.5625 L757.623,453.5625 C757.623,460.5625 769.8711,465.5625 769.8711,472.5625 L769.8711,475.5625 " fill="none" style="stroke:#181818;stroke-width:1.0;"/><rect fill="#F1F1F1" height="52.5938" rx="12.5" ry="12.5" style="stroke:#181818;stroke-width:1.5;" width="255.3955" x="887.978" y="475.5625"/><text fill="#000000" font-family="sans-serif" font-size="14" lengthAdjust="spacing" textLength="235.3955" x="897.978" y="498.5576">John Stewart 2nd Lord of Aubigny</text><text fill="#000000" font-family="sans-serif" font-size="14" lengthAdjust="spacing" textLength="48.9658" x="897.978" y="514.8545">d.1482</text><rect fill="#F1F1F1" height="52.5938" rx="12.5" ry="12.5" style="stroke:#181818;stroke-width:1.5;" width="277.9063" x="876.7227" y="553.1563"/><text fill="#000000" font-family="sans-serif" font-size="14" lengthAdjust="spacing" textLength="257.9063" x="886.7227" y="576.1514">Bernard Stewart 3rd Lord of Aubigny</text><text fill="#000000" font-family="sans-serif" font-size="14" lengthAdjust="spacing" textLength="4.4502" x="886.7227" y="592.4482">&#160;</text><path d="M1015.6758,528.1563 L1015.6758,531.1563 C1015.6758,538.1563 1015.6758,543.1563 1015.6758,550.1563 L1015.6758,553.1563 " fill="none" style="stroke:#181818;stroke-width:1.0;"/><path d="M757.623,450.5625 L757.623,453.5625 C757.623,460.5625 1015.6758,465.5625 1015.6758,472.5625 L1015.6758,475.5625 " fill="none" style="stroke:#181818;stroke-width:1.0;"/><path d="M1131.6318,372.9688 L1131.6318,375.9688 C1131.6318,382.9688 757.623,387.9688 757.623,394.9688 L757.623,397.9688 " fill="none" style="stroke:#181818;stroke-width:1.0;"/><rect fill="#FFC0CB" height="52.5938" rx="12.5" ry="12.5" style="stroke:#181818;stroke-width:1.5;" width="130.332" x="985.1885" y="397.9688"/><text fill="#000000" font-family="sans-serif" font-size="14" lengthAdjust="spacing" textLength="110.332" x="995.1885" y="420.9639">William Stewart</text><text fill="#000000" font-family="sans-serif" font-size="14" lengthAdjust="spacing" textLength="48.9658" x="995.1885" y="437.2607">d.1429</text><path d="M1131.6318,372.9688 L1131.6318,375.9688 C1131.6318,382.9688 1050.3545,387.9688 1050.3545,394.9688 L1050.3545,397.9688 " fill="none" style="stroke:#181818;stroke-width:1.0;"/><rect fill="#F1F1F1" height="52.5938" rx="12.5" ry="12.5" style="stroke:#181818;stroke-width:1.5;" width="332.5732" x="1135.5205" y="397.9688"/><text fill="#000000" font-family="sans-serif" font-size="14" lengthAdjust="spacing" textLength="311.2881" x="1145.5205" y="420.9639">Alexander Stewart of Torbane and Galleston</text><text fill="#000000" font-family="sans-serif" font-size="14" font-style="italic" lengthAdjust="spacing" textLength="312.5732" x="1145.5205" y="437.2607">Stewarts of Drumlay, Halrig, Raiss, Shawood</text><path d="M1131.6318,372.9688 L1131.6318,375.9688 C1131.6318,382.9688 1301.8071,387.9688 1301.8071,394.9688 L1301.8071,397.9688 " fill="none" style="stroke:#181818;stroke-width:1.0;"/><rect fill="#F1F1F1" height="52.5938" rx="12.5" ry="12.5" style="stroke:#181818;stroke-width:1.5;" width="273.5859" x="1488.0938" y="397.9688"/><text fill="#000000" font-family="sans-serif" font-size="14" lengthAdjust="spacing" textLength="105.752" x="1498.0938" y="420.9639">Robert Stewart</text><text fill="#000000" font-family="sans-serif" font-size="14" font-style="italic" lengthAdjust="spacing" textLength="253.5859" x="1498.0938" y="437.2607">Stewarts of Barscube, Binnie, Milton</text><path d="M1131.6318,372.9688 L1131.6318,375.9688 C1131.6318,382.9688 1624.8867,387.9688 1624.8867,394.9688 L1624.8867,397.9688 " fill="none" style="stroke:#181818;stroke-width:1.0;"/><rect fill="#F1F1F1" height="52.5938" rx="12.5" ry="12.5" style="stroke:#181818;stroke-width:1.5;" width="120.9668" x="1781.6797" y="397.9688"/><text fill="#000000" font-family="sans-serif" font-size="14" lengthAdjust="spacing" textLength="100.9668" x="1791.6797" y="420.9639">James Stewart</text><text fill="#000000" font-family="sans-serif" font-size="14" lengthAdjust="spacing" textLength="4.4502" x="1791.6797" y="437.2607">&#160;</text><path d="M1131.6318,372.9688 L1131.6318,375.9688 C1131.6318,382.9688 1842.1631,387.9688 1842.1631,394.9688 L1842.1631,397.9688 " fill="none" style="stroke:#181818;stroke-width:1.0;"/><path d="M1131.6318,295.375 L1131.6318,298.375 C1131.6318,305.375 1131.6318,310.375 1131.6318,317.375 L1131.6318,320.375 " fill="none" style="stroke:#181818;stroke-width:1.0;"/><path d="M1131.6318,217.7813 L1131.6318,220.7813 C1131.6318,227.7813 1131.6318,232.7813 1131.6318,239.7813 L1131.6318,242.7813 " fill="none" style="stroke:#181818;stroke-width:1.0;"/><path d="M1728.9294,140.1875 L1728.9294,143.1875 C1728.9294,150.1875 1131.6318,155.1875 1131.6318,162.1875 L1131.6318,165.1875 " fill="none" style="stroke:#181818;stroke-width:1.0;"/><rect fill="#F1F1F1" height="52.5938" rx="12.5" ry="12.5" style="stroke:#181818;stroke-width:1.5;" width="247.9443" x="1288.8965" y="165.1875"/><text fill="#000000" font-family="sans-serif" font-size="14" lengthAdjust="spacing" textLength="227.9443" x="1298.8965" y="188.1826">Sir Walter Stewart of Dalwinston</text><text fill="#000000" font-family="sans-serif" font-size="14" font-style="italic" lengthAdjust="spacing" textLength="64.0869" x="1298.8965" y="204.4795">Galloway</text><path d="M1728.9294,140.1875 L1728.9294,143.1875 C1728.9294,150.1875 1412.8687,155.1875 1412.8687,162.1875 L1412.8687,165.1875 " fill="none" style="stroke:#181818;stroke-width:1.0;"/><rect fill="#F1F1F1" height="52.5938" rx="12.5" ry="12.5" style="stroke:#181818;stroke-width:1.5;" width="201.8154" x="2579.345" y="165.1875"/><text fill="#000000" font-family="sans-serif" font-size="14" lengthAdjust="spacing" textLength="181.8154" x="2589.345" y="188.1826">Sir James Stewart d. 1333</text><text fill="#000000" font-family="sans-serif" font-size="14" font-style="italic" lengthAdjust="spacing" textLength="107.5088" x="2589.345" y="204.4795">Buchan/Traquir</text><rect fill="#FFC0CB" height="52.5938" rx="12.5" ry="12.5" style="stroke:#181818;stroke-width:1.5;" width="132.1367" x="2205.4338" y="242.7813"/><text fill="#000000" font-family="sans-serif" font-size="14" lengthAdjust="spacing" textLength="112.1367" x="2215.4338" y="265.7764">Sir John Stewart</text><text fill="#000000" font-family="sans-serif" font-size="14" lengthAdjust="spacing" textLength="4.4502" x="2215.4338" y="282.0732">&#160;</text><path d="M2680.2527,217.7813 L2680.2527,220.7813 C2680.2527,227.7813 2271.5022,232.7813 2271.5022,239.7813 L2271.5022,242.7813 " fill="none" style="stroke:#181818;stroke-width:1.0;"/><rect fill="#FFC0CB" height="52.5938" rx="12.5" ry="12.5" style="stroke:#181818;stroke-width:1.5;" width="132.6152" x="2357.5706" y="242.7813"/><text fill="#000000" font-family="sans-serif" font-size="14" lengthAdjust="spacing" textLength="112.6152" x="2367.5706" y="265.7764">Sir Alan Stewart</text><text fill="#000000" font-family="sans-serif" font-size="14" lengthAdjust="spacing" textLength="4.4502" x="2367.5706" y="282.0732">&#160;</text><path d="M2680.2527,217.7813 L2680.2527,220.7813 C2680.2527,227.7813 2423.8782,232.7813 2423.8782,239.7813 L2423.8782,242.7813 " fill="none" style="stroke:#181818;stroke-width:1.0;"/><rect fill="#F1F1F1" height="52.5938" rx="12.5" ry="12.5" style="stroke:#181818;stroke-width:1.5;" width="340.1338" x="2510.1858" y="242.7813"/><text fill="#000000" font-family="sans-serif" font-size="14" lengthAdjust="spacing" textLength="320.1338" x="2520.1858" y="265.7764">Robert Stewart of Shanbothy and Innermeath</text><text fill="#000000" font-family="sans-serif" font-size="14" lengthAdjust="spacing" textLength="4.4502" x="2520.1858" y="282.0732">&#160;</text><rect fill="#F1F1F1" height="52.5938" rx="12.5" ry="12.5" style="stroke:#181818;stroke-width:1.5;" width="212.9854" x="2573.76" y="320.375"/><text fill="#000000" font-family="sans-serif" font-size="14" lengthAdjust="spacing" textLength="192.9854" x="2583.76" y="343.3701">John Stewart of Innermeath</text><text fill="#000000" font-family="sans-serif" font-size="14" lengthAdjust="spacing" textLength="4.4502" x="2583.76" y="359.667">&#160;</text><rect fill="#F1F1F1" height="52.5938" rx="12.5" ry="12.5" style="stroke:#181818;stroke-width:1.5;" width="278.2139" x="2031.0933" y="397.9688"/><text fill="#000000" font-family="sans-serif" font-size="14" lengthAdjust="spacing" textLength="258.2139" x="2041.0933" y="420.9639">Robert Stewart 2nd Lord Innermeath</text><text fill="#000000" font-family="sans-serif" font-size="14" lengthAdjust="spacing" textLength="53.416" x="2041.0933" y="437.2607">d. 1388</text><rect fill="#F1F1F1" height="52.5938" rx="12.5" ry="12.5" style="stroke:#181818;stroke-width:1.5;" width="258.499" x="1922.6465" y="475.5625"/><text fill="#000000" font-family="sans-serif" font-size="14" lengthAdjust="spacing" textLength="238.499" x="1932.6465" y="498.5576">John Stewart 3rd Lord Innermeath</text><text fill="#000000" font-family="sans-serif" font-size="14" lengthAdjust="spacing" textLength="4.4502" x="1932.6465" y="514.8545">&#160;</text><path d="M2170.2002,450.5625 L2170.2002,453.5625 C2170.2002,460.5625 2051.896,465.5625 2051.896,472.5625 L2051.896,475.5625 " fill="none" style="stroke:#181818;stroke-width:1.0;"/><rect fill="#F1F1F1" height="52.5938" rx="12.5" ry="12.5" style="stroke:#181818;stroke-width:1.5;" width="216.6084" x="2201.1455" y="475.5625"/><text fill="#000000" font-family="sans-serif" font-size="14" lengthAdjust="spacing" textLength="196.6084" x="2211.1455" y="498.5576">Robert Stewart of Durisdeer</text><text fill="#000000" font-family="sans-serif" font-size="14" lengthAdjust="spacing" textLength="48.9658" x="2211.1455" y="514.8545">d.1403</text><path d="M2170.2002,450.5625 L2170.2002,453.5625 C2170.2002,460.5625 2309.4497,465.5625 2309.4497,472.5625 L2309.4497,475.5625 " fill="none" style="stroke:#181818;stroke-width:1.0;"/><path d="M2680.2527,372.9688 L2680.2527,375.9688 C2680.2527,382.9688 2170.2002,387.9688 2170.2002,394.9688 L2170.2002,397.9688 " fill="none" style="stroke:#181818;stroke-width:1.0;"/><rect fill="#F1F1F1" height="52.5938" rx="12.5" ry="12.5" style="stroke:#181818;stroke-width:1.5;" width="144.749" x="2329.3071" y="397.9688"/><text fill="#000000" font-family="sans-serif" font-size="14" lengthAdjust="spacing" textLength="124.749" x="2339.3071" y="420.9639">Archibald Stewart</text><text fill="#000000" font-family="sans-serif" font-size="14" lengthAdjust="spacing" textLength="4.4502" x="2339.3071" y="437.2607">&#160;</text><path d="M2680.2527,372.9688 L2680.2527,375.9688 C2680.2527,382.9688 2401.6816,387.9688 2401.6816,394.9688 L2401.6816,397.9688 " fill="none" style="stroke:#181818;stroke-width:1.0;"/><rect fill="#F1F1F1" height="52.5938" rx="12.5" ry="12.5" style="stroke:#181818;stroke-width:1.5;" width="289.3086" x="2675.5454" y="397.9688"/><text fill="#000000" font-family="sans-serif" font-size="14" lengthAdjust="spacing" textLength="269.3086" x="2685.5454" y="420.9639">Sir James Stewart Black Knight of Lorn</text><text fill="#000000" font-family="sans-serif" font-size="14" lengthAdjust="spacing" textLength="4.4502" x="2685.5454" y="437.2607">&#160;</text><rect fill="#F1F1F1" height="52.5938" rx="12.5" ry="12.5" style="stroke:#181818;stroke-width:1.5;" width="279.752" x="2652.5293" y="475.5625"/><text fill="#000000" font-family="sans-serif" font-size="14" lengthAdjust="spacing" textLength="259.752" x="2662.5293" y="498.5576">Sir John Stewart d.1512 Earl of Atholl</text><text fill="#000000" font-family="sans-serif" font-size="14" lengthAdjust="spacing" textLength="4.4502" x="2662.5293" y="514.8545">&#160;</text><rect fill="#F1F1F1" height="52.5938" rx="12.5" ry="12.5" style="stroke:#181818;stroke-width:1.5;" width="310.8691" x="2636.9707" y="553.1563"/><text fill="#000000" font-family="sans-serif" font-size="14" lengthAdjust="spacing" textLength="290.8691" x="2646.9707" y="576.1514">Sir John Stewart d.1513 2nd Earl of Atholl</text><text fill="#000000" font-family="sans-serif" font-size="14" lengthAdjust="spacing" textLength="4.4502" x="2646.9707" y="592.4482">&#160;</text><rect fill="#F1F1F1" height="52.5938" rx="12.5" ry="12.5" style="stroke:#181818;stroke-width:1.5;" width="307.752" x="2521.8135" y="630.75"/><text fill="#000000" font-family="sans-serif" font-size="14" lengthAdjust="spacing" textLength="287.752" x="2531.8135" y="653.7451">Sir John Stewart d.1542 3rd Earl of Atholl</text><text fill="#000000" font-family="sans-serif" font-size="14" lengthAdjust="spacing" textLength="4.4502" x="2531.8135" y="670.042">&#160;</text><rect fill="#F1F1F1" height="52.5938" rx="12.5" ry="12.5" style="stroke:#181818;stroke-width:1.5;" width="311.9219" x="2437.7539" y="708.3438"/><text fill="#000000" font-family="sans-serif" font-size="14" lengthAdjust="spacing" textLength="291.9219" x="2447.7539" y="731.3389">Sir John Stewart d. 1579 4th Earl of Atholl</text><text fill="#000000" font-family="sans-serif" font-size="14" lengthAdjust="spacing" textLength="4.4502" x="2447.7539" y="747.6357">&#160;</text><path d="M2675.6895,683.3438 L2675.6895,686.3438 C2675.6895,693.3438 2593.7148,698.3438 2593.7148,705.3438 L2593.7148,708.3438 " fill="none" style="stroke:#181818;stroke-width:1.0;"/><rect fill="#F1F1F1" height="52.5938" rx="12.5" ry="12.5" style="stroke:#181818;stroke-width:1.5;" width="143.9492" x="2769.6758" y="708.3438"/><text fill="#000000" font-family="sans-serif" font-size="14" lengthAdjust="spacing" textLength="123.9492" x="2779.6758" y="731.3389">Sir James Stewart</text><text fill="#000000" font-family="sans-serif" font-size="14" lengthAdjust="spacing" textLength="4.4502" x="2779.6758" y="747.6357">&#160;</text><path d="M2675.6895,683.3438 L2675.6895,686.3438 C2675.6895,693.3438 2841.6504,698.3438 2841.6504,705.3438 L2841.6504,708.3438 " fill="none" style="stroke:#181818;stroke-width:1.0;"/><path d="M2792.4053,605.75 L2792.4053,608.75 C2792.4053,615.75 2675.6895,620.75 2675.6895,627.75 L2675.6895,630.75 " fill="none" style="stroke:#181818;stroke-width:1.0;"/><rect fill="#F1F1F1" height="52.5938" rx="12.5" ry="12.5" style="stroke:#181818;stroke-width:1.5;" width="297.4912" x="2849.5654" y="630.75"/><text fill="#000000" font-family="sans-serif" font-size="14" lengthAdjust="spacing" textLength="277.4912" x="2859.5654" y="653.7451">Sir Andrew Stewart Bishop of Caithness</text><text fill="#000000" font-family="sans-serif" font-size="14" lengthAdjust="spacing" textLength="4.4502" x="2859.5654" y="670.042">&#160;</text><path d="M2792.4053,605.75 L2792.4053,608.75 C2792.4053,615.75 2998.311,620.75 2998.311,627.75 L2998.311,630.75 " fill="none" style="stroke:#181818;stroke-width:1.0;"/><path d="M2792.4053,528.1563 L2792.4053,531.1563 C2792.4053,538.1563 2792.4053,543.1563 2792.4053,550.1563 L2792.4053,553.1563 " fill="none" style="stroke:#181818;stroke-width:1.0;"/><path d="M2820.1997,450.5625 L2820.1997,453.5625 C2820.1997,460.5625 2792.4053,465.5625 2792.4053,472.5625 L2792.4053,475.5625 " fill="none" style="stroke:#181818;stroke-width:1.0;"/><rect fill="#F1F1F1" height="52.5938" rx="12.5" ry="12.5" style="stroke:#181818;stroke-width:1.5;" width="250.3643" x="2952.2813" y="475.5625"/><text fill="#000000" font-family="sans-serif" font-size="14" lengthAdjust="spacing" textLength="230.3643" x="2962.2813" y="498.5576">Sir James Stewart Earl of Buchan</text><text fill="#000000" font-family="sans-serif" font-size="14" lengthAdjust="spacing" textLength="4.4502" x="2962.2813" y="514.8545">&#160;</text><path d="M2820.1997,450.5625 L2820.1997,453.5625 C2820.1997,460.5625 3077.4634,465.5625 3077.4634,472.5625 L3077.4634,475.5625 " fill="none" style="stroke:#181818;stroke-width:1.0;"/><path d="M2680.2527,372.9688 L2680.2527,375.9688 C2680.2527,382.9688 2820.1997,387.9688 2820.1997,394.9688 L2820.1997,397.9688 " fill="none" style="stroke:#181818;stroke-width:1.0;"/><rect fill="#F1F1F1" height="52.5938" rx="12.5" ry="12.5" style="stroke:#181818;stroke-width:1.5;" width="302.6729" x="2984.854" y="397.9688"/><text fill="#000000" font-family="sans-serif" font-size="14" lengthAdjust="spacing" textLength="129.7871" x="2994.854" y="420.9639">Alexander Stewart</text><text fill="#000000" font-family="sans-serif" font-size="14" font-style="italic" lengthAdjust="spacing" textLength="148.4355" x="3129.0913" y="420.9639">Stewarts of Grantully</text><text fill="#000000" font-family="sans-serif" font-size="14" lengthAdjust="spacing" textLength="4.4502" x="2994.854" y="437.2607">&#160;</text><path d="M2680.2527,372.9688 L2680.2527,375.9688 C2680.2527,382.9688 3136.1904,387.9688 3136.1904,394.9688 L3136.1904,397.9688 " fill="none" style="stroke:#181818;stroke-width:1.0;"/><rect fill="#F1F1F1" height="52.5938" rx="12.5" ry="12.5" style="stroke:#181818;stroke-width:1.5;" width="130.332" x="3307.5269" y="397.9688"/><text fill="#000000" font-family="sans-serif" font-size="14" lengthAdjust="spacing" textLength="110.332" x="3317.5269" y="420.9639">William Stewart</text><text fill="#000000" font-family="sans-serif" font-size="14" lengthAdjust="spacing" textLength="4.4502" x="3317.5269" y="437.2607">&#160;</text><path d="M2680.2527,372.9688 L2680.2527,375.9688 C2680.2527,382.9688 3372.6929,387.9688 3372.6929,394.9688 L3372.6929,397.9688 " fill="none" style="stroke:#181818;stroke-width:1.0;"/><path d="M2680.2527,295.375 L2680.2527,298.375 C2680.2527,305.375 2680.2527,310.375 2680.2527,317.375 L2680.2527,320.375 " fill="none" style="stroke:#181818;stroke-width:1.0;"/><rect fill="#F1F1F1" height="52.5938" rx="12.5" ry="12.5" style="stroke:#181818;stroke-width:1.5;" width="271.002" x="2806.7454" y="320.375"/><text fill="#000000" font-family="sans-serif" font-size="14" lengthAdjust="spacing" textLength="105.752" x="2816.7454" y="343.3701">Robert Stewart</text><text fill="#000000" font-family="sans-serif" font-size="14" font-style="italic" lengthAdjust="spacing" textLength="140.7998" x="2926.9475" y="343.3701">Stewarts of Rosythe</text><text fill="#000000" font-family="sans-serif" font-size="14" lengthAdjust="spacing" textLength="4.4502" x="2816.7454" y="359.667">&#160;</text><path d="M2680.2527,295.375 L2680.2527,298.375 C2680.2527,305.375 2942.2463,310.375 2942.2463,317.375 L2942.2463,320.375 " fill="none" style="stroke:#181818;stroke-width:1.0;"/><path d="M2680.2527,217.7813 L2680.2527,220.7813 C2680.2527,227.7813 2680.2527,232.7813 2680.2527,239.7813 L2680.2527,242.7813 " fill="none" style="stroke:#181818;stroke-width:1.0;"/><path d="M1728.9294,140.1875 L1728.9294,143.1875 C1728.9294,150.1875 2680.2527,155.1875 2680.2527,162.1875 L2680.2527,165.1875 " fill="none" style="stroke:#181818;stroke-width:1.0;"/><rect fill="#F1F1F1" height="52.5938" rx="12.5" ry="12.5" style="stroke:#181818;stroke-width:1.5;" width="132.1367" x="2801.1604" y="165.1875"/><text fill="#000000" font-family="sans-serif" font-size="14" lengthAdjust="spacing" textLength="112.1367" x="2811.1604" y="188.1826">Sir John Stewart</text><text fill="#000000" font-family="sans-serif" font-size="14" font-style="italic" lengthAdjust="spacing" textLength="73.165" x="2811.1604" y="204.4795">Castlemilk</text><path d="M1728.9294,140.1875 L1728.9294,143.1875 C1728.9294,150.1875 2867.2288,155.1875 2867.2288,162.1875 L2867.2288,165.1875 " fill="none" style="stroke:#181818;stroke-width:1.0;"/><rect fill="#F1F1F1" height="52.5938" rx="12.5" ry="12.5" style="stroke:#181818;stroke-width:1.5;" width="138.8564" x="2953.2971" y="165.1875"/><text fill="#000000" font-family="sans-serif" font-size="14" lengthAdjust="spacing" textLength="118.8564" x="2963.2971" y="188.1826">Sir Hugh Stewart</text><text fill="#000000" font-family="sans-serif" font-size="14" lengthAdjust="spacing" textLength="4.4502" x="2963.2971" y="204.4795">&#160;</text><path d="M1728.9294,140.1875 L1728.9294,143.1875 C1728.9294,150.1875 3022.7253,155.1875 3022.7253,162.1875 L3022.7253,165.1875 " fill="none" style="stroke:#181818;stroke-width:1.0;"/><rect fill="#F1F1F1" height="52.5938" rx="12.5" ry="12.5" style="stroke:#181818;stroke-width:1.5;" width="148.7344" x="3112.1536" y="165.1875"/><text fill="#000000" font-family="sans-serif" font-size="14" lengthAdjust="spacing" textLength="128.7344" x="3122.1536" y="188.1826">Sir Robert Stewart</text><text fill="#000000" font-family="sans-serif" font-size="14" lengthAdjust="spacing" textLength="4.4502" x="3122.1536" y="204.4795">&#160;</text><path d="M1728.9294,140.1875 L1728.9294,143.1875 C1728.9294,150.1875 3186.5208,155.1875 3186.5208,162.1875 L3186.5208,165.1875 " fill="none" style="stroke:#181818;stroke-width:1.0;"/><path d="M1883.5051,62.5938 L1883.5051,65.5938 C1883.5051,72.5938 1728.9294,77.5938 1728.9294,84.5938 L1728.9294,87.5938 " fill="none" style="stroke:#181818;stroke-width:1.0;"/><rect fill="#F1F1F1" height="52.5938" rx="12.5" ry="12.5" style="stroke:#181818;stroke-width:1.5;" width="55.6084" x="3574.6304" y="87.5938"/><text fill="#000000" font-family="sans-serif" font-size="14" lengthAdjust="spacing" textLength="35.6084" x="3584.6304" y="110.5889">S781</text><text fill="#000000" font-family="sans-serif" font-size="14" lengthAdjust="spacing" textLength="4.4502" x="3584.6304" y="126.8857">&#160;</text><rect fill="#F1F1F1" height="52.5938" rx="12.5" ry="12.5" style="stroke:#181818;stroke-width:1.5;" width="24.4502" x="3590.2095" y="165.1875"/><text fill="#000000" font-family="sans-serif" font-size="14" lengthAdjust="spacing" textLength="4.4502" x="3600.2095" y="188.1826">&#160;</text><text fill="#000000" font-family="sans-serif" font-size="14" lengthAdjust="spacing" textLength="4.4502" x="3600.2095" y="204.4795">&#160;</text><rect fill="#F1F1F1" height="52.5938" rx="12.5" ry="12.5" style="stroke:#181818;stroke-width:1.5;" width="24.4502" x="3590.2095" y="242.7813"/><text fill="#000000" font-family="sans-serif" font-size="14" lengthAdjust="spacing" textLength="4.4502" x="3600.2095" y="265.7764">&#160;</text><text fill="#000000" font-family="sans-serif" font-size="14" lengthAdjust="spacing" textLength="4.4502" x="3600.2095" y="282.0732">&#160;</text><rect fill="#F1F1F1" height="52.5938" rx="12.5" ry="12.5" style="stroke:#181818;stroke-width:1.5;" width="24.4502" x="3590.2095" y="320.375"/><text fill="#000000" font-family="sans-serif" font-size="14" lengthAdjust="spacing" textLength="4.4502" x="3600.2095" y="343.3701">&#160;</text><text fill="#000000" font-family="sans-serif" font-size="14" lengthAdjust="spacing" textLength="4.4502" x="3600.2095" y="359.667">&#160;</text><rect fill="#F1F1F1" height="52.5938" rx="12.5" ry="12.5" style="stroke:#181818;stroke-width:1.5;" width="289.1514" x="3457.8589" y="397.9688"/><text fill="#000000" font-family="sans-serif" font-size="14" lengthAdjust="spacing" textLength="269.1514" x="3467.8589" y="420.9639">R-BY11989.1 / SNP FGC74572? ~1450</text><text fill="#000000" font-family="sans-serif" font-size="14" lengthAdjust="spacing" textLength="4.4502" x="3467.8589" y="437.2607">&#160;</text><rect fill="#F1F1F1" height="52.5938" rx="12.5" ry="12.5" style="stroke:#181818;stroke-width:1.5;" width="24.4502" x="3590.2095" y="475.5625"/><text fill="#000000" font-family="sans-serif" font-size="14" lengthAdjust="spacing" textLength="4.4502" x="3600.2095" y="498.5576">&#160;</text><text fill="#000000" font-family="sans-serif" font-size="14" lengthAdjust="spacing" textLength="4.4502" x="3600.2095" y="514.8545">&#160;</text><rect fill="#F1F1F1" height="52.5938" rx="12.5" ry="12.5" style="stroke:#181818;stroke-width:1.5;" width="24.4502" x="3590.2095" y="553.1563"/><text fill="#000000" font-family="sans-serif" font-size="14" lengthAdjust="spacing" textLength="4.4502" x="3600.2095" y="576.1514">&#160;</text><text fill="#000000" font-family="sans-serif" font-size="14" lengthAdjust="spacing" textLength="4.4502" x="3600.2095" y="592.4482">&#160;</text><rect fill="#F1F1F1" height="52.5938" rx="12.5" ry="12.5" style="stroke:#181818;stroke-width:1.5;" width="24.4502" x="3590.2095" y="630.75"/><text fill="#000000" font-family="sans-serif" font-size="14" lengthAdjust="spacing" textLength="4.4502" x="3600.2095" y="653.7451">&#160;</text><text fill="#000000" font-family="sans-serif" font-size="14" lengthAdjust="spacing" textLength="4.4502" x="3600.2095" y="670.042">&#160;</text><rect fill="#F1F1F1" height="52.5938" rx="12.5" ry="12.5" style="stroke:#181818;stroke-width:1.5;" width="167.2324" x="3518.8184" y="708.3438"/><text fill="#000000" font-family="sans-serif" font-size="14" lengthAdjust="spacing" textLength="147.2324" x="3528.8184" y="731.3389">R-FGC70765? ~1550</text><text fill="#000000" font-family="sans-serif" font-size="14" lengthAdjust="spacing" textLength="4.4502" x="3528.8184" y="747.6357">&#160;</text><path d="M3602.4346,683.3438 L3602.4346,686.3438 C3602.4346,693.3438 3602.4346,698.3438 3602.4346,705.3438 L3602.4346,708.3438 " fill="none" style="stroke:#181818;stroke-width:1.0;"/><path d="M3602.4346,605.75 L3602.4346,608.75 C3602.4346,615.75 3602.4346,620.75 3602.4346,627.75 L3602.4346,630.75 " fill="none" style="stroke:#181818;stroke-width:1.0;"/><path d="M3602.4346,528.1563 L3602.4346,531.1563 C3602.4346,538.1563 3602.4346,543.1563 3602.4346,550.1563 L3602.4346,553.1563 " fill="none" style="stroke:#181818;stroke-width:1.0;"/><path d="M3602.4346,450.5625 L3602.4346,453.5625 C3602.4346,460.5625 3602.4346,465.5625 3602.4346,472.5625 L3602.4346,475.5625 " fill="none" style="stroke:#181818;stroke-width:1.0;"/><path d="M3602.4346,372.9688 L3602.4346,375.9688 C3602.4346,382.9688 3602.4346,387.9688 3602.4346,394.9688 L3602.4346,397.9688 " fill="none" style="stroke:#181818;stroke-width:1.0;"/><path d="M3602.4346,295.375 L3602.4346,298.375 C3602.4346,305.375 3602.4346,310.375 3602.4346,317.375 L3602.4346,320.375 " fill="none" style="stroke:#181818;stroke-width:1.0;"/><path d="M3602.4346,217.7813 L3602.4346,220.7813 C3602.4346,227.7813 3602.4346,232.7813 3602.4346,239.7813 L3602.4346,242.7813 " fill="none" style="stroke:#181818;stroke-width:1.0;"/><path d="M3602.4346,140.1875 L3602.4346,143.1875 C3602.4346,150.1875 3602.4346,155.1875 3602.4346,162.1875 L3602.4346,165.1875 " fill="none" style="stroke:#181818;stroke-width:1.0;"/><path d="M1883.5051,62.5938 L1883.5051,65.5938 C1883.5051,72.5938 3602.4346,77.5938 3602.4346,84.5938 L3602.4346,87.5938 " fill="none" style="stroke:#181818;stroke-width:1.0;"/><!--SRC=[XLRRSjCw57tNLsZcl41EciINtDnE3qqAXP129mam37CUv5Z4ciXRHP8RyiAt8zlnDIuyTTAzrzeNhINhbT94weX14957F1EmFtAEDv9IfCKZrWBxGciHuO19kjLC0Efuw19rEjwQIRmG8U2rfWT3WiNtWY3eMVPqWgxywt_NuubrrVUlBv41PQWRJdyI2AXy1kfOKtJ5hczW5wkhFZj1ErwrMXU_9f8dm3GjXJaMEgLslltpo63_lxS9HKHK2R8XQ06ESk2fFL8RwbRINIWaP3MSfBLR8e7JOtz90SJFQe_FpdU2O1F0Snblzqnf4GCAUhyiP-nUPdt_5M_oBNUGfxUVGhLKrc4NBuKCqg5Zd-qWex6dEStvu6c2KoQSLofF8AkH8gR32g9rZZl2yy4jT-oK7Pnbep9Mcp0vmxPn9dQbzenA82Od1pdo79IdvsBvmZXd92emnPBGdmRQ2EaJeEcspN2Scl4W4SafHsKQYYDEZbtybd39Tbsy8aofBbw7v214K56GARCIFZNS-HeQL3CYrJRsQHVF600pV-yPDoNh70iIKLNPPA7kBuJhfhBuWK7UTJA2E91ZIPUTV9NFE07dLfZ5sv10VoF9ZvZ9IXFvLfkwGItncl9oAzNNa7HgjWNcFWepQRy3e3AYH8U5xRsc5LfopeWBFLMIqm4damBJO2xKLEFljFCdAuubKm4rUy_ywrGq9RSXymaFpcJVilSP9zizVWzi5wQyfWT0THFN-ZJ5XfPTtdWw59oZFvWwGpZrUxA9UWRcskbUdeUruh0r74-ngyE_0nkIhaTl893qK6wAgT1ym0pTd30T0bMgkQZQPlFYcPpBCpYtVCEETvA0ZZbF3LFY6dT97cXgeq6s4kgeGtgYghYlwX-3cHEbEOqOtpTi-ZRUXMskRrmf6RUNV9kpphnJWrxHQ3dAwcBsrRAcasdFmdsy_l20tzpDn-vmRF-7VrdkS51PR5LRfUFEVYMa2SbWF1ec9CEK1BsYvXsIlKKGUZ1tWlvqlyHFL2hpyC1MpnxORc_qOaqqNiGS3qPuCFKirtCc-DDcZfFmI_JYxc69bOZbbffNYzAI-N7oS7c95kI9u5KCcaNKmnyVAInkt-V_mA_XYKa14GMD5f_louIHUp5ZPdTKcaxmvtjqIx-Jc1lDm5O437QUgVxcOeAMnBmeoCvmKq1pyutJycXYwzy0]--></g></svg>